# xmcd
#
# Track frame offsets:
#	150
#	18366
#	41283
#	65511
#	90738
#	111439
#	137316
#	167859
#	190993
#	208937
#	231210
#	253391
#
# Disc length: 3676 seconds
#
# Revision: 3
# Processed by: cddbd v1.5.2PL0 Copyright (c) Steve Scherf et al.
# Submitted via: EZCDAudioConverter 8.0.2.1
#
DISCID=aa0e5a0c
DTITLE=Mai Thiên Vân - Thương Hoài Ngàn Năm
DYEAR=2008
DGENRE=
TTITLE0=Mai Thiên Vân - Tiếng sông Hương
TTITLE1=Mai Thiên Vân - Ngày đá đơm bông
TTITLE2=Mai Thiên Vân - Giờ xa lắm rồi
TTITLE3=Mai Thiên Vân - Xa vắng
TTITLE4=Mai Thiên Vân - Hoài thu
TTITLE5=Mai Thiên Vân, Quang Lê - Nước non ngàn dặm ra đi
TTITLE6=Mai Thiên Vân - Hai kỷ niệm một chuyến đi
TTITLE7=Mai Thiên Vân - Phận má hồng
TTITLE8=Mai Thiên Vân - Một mình thôi
TTITLE9=Mai Thiên Vân - Thương Hoài Ngàn Năm
TTITLE10=Mai Thiên Vân - Chuyện đêm mưa
TTITLE11=Mai Thiên Vân - Phố vắng em rồi
EXTD=
EXTT0=
EXTT1=
EXTT2=
EXTT3=
EXTT4=
EXTT5=
EXTT6=
EXTT7=
EXTT8=
EXTT9=
EXTT10=
EXTT11=
PLAYORDER=
